<svg width="56" height="56" viewBox="0 0 56 56" fill="none" xmlns="http://www.w3.org/2000/svg">
<path d="M15.1488 9.85388C16.694 9.02534 17.477 11.4617 16.2094 12.6735C11.6339 17.0477 8.73813 23.4806 8.87238 30.2812C8.96193 34.8158 10.3852 38.83 12.7243 41.9313C13.7392 43.2769 12.692 45.5757 11.2613 44.6848C10.5398 44.2355 9.84536 43.7273 9.18378 43.1594C1.35003 36.4351 1.08823 23.8907 8.599 15.1407C10.5145 12.9091 12.7504 11.14 15.1488 9.85388Z" fill="#00CC9B" fill-opacity="0.5"/>
<path d="M28.6193 22.824C28.6193 35.5265 37.9855 52 25.5381 52C13.0906 52 3 41.7026 3 29C3 16.2975 13.0906 6 25.5381 6C37.9855 6 28.6193 10.1214 28.6193 22.824Z" fill="url(#paint0_linear_2741:4183)"/>
<path d="M26.3807 20.4582C26.3807 32.8846 17.0145 49 29.4619 49C41.9094 49 52 38.9264 52 26.5C52 14.0736 41.9094 4 29.4619 4C17.0145 4 26.3807 8.03182 26.3807 20.4582Z" fill="url(#paint1_linear_2741:4183)"/>
<path d="M16.5154 44.8738C19.774 44.8738 22.4156 42.9862 22.4156 40.6576C22.4156 38.3291 19.774 36.4414 16.5154 36.4414C13.2568 36.4414 10.6152 38.3291 10.6152 40.6576C10.6152 42.9862 13.2568 44.8738 16.5154 44.8738Z" fill="white"/>
<path d="M27.3105 12.9609L29.1138 13.5041L22.5299 40.4112L19.6465 41.9222L27.3105 12.9609Z" fill="white"/>
<path d="M38.3635 9.56563C35.1049 9.56563 32.4633 11.4533 32.4633 13.7818C32.4633 16.1104 35.1049 17.998 38.3635 17.998C41.6221 17.998 44.2637 16.1104 44.2637 13.7818C44.2637 11.4533 41.6221 9.56563 38.3635 9.56563Z" fill="white"/>
<path d="M27.5695 41.4789L25.5977 41.479L32.3501 14.0286L35.2335 12.5176L27.5695 41.4789Z" fill="white"/>
<defs>
<linearGradient id="paint0_linear_2741:4183" x1="14.3214" y1="2.52233" x2="26.3537" y2="4.0846" gradientUnits="userSpaceOnUse">
<stop stop-color="#00CC9B"/>
<stop offset="1" stop-color="#018D6C"/>
</linearGradient>
<linearGradient id="paint1_linear_2741:4183" x1="53.1125" y1="29.1912" x2="16.3089" y2="22.0516" gradientUnits="userSpaceOnUse">
<stop/>
<stop offset="1" stop-color="#4D4B4B"/>
</linearGradient>
</defs>
</svg>
